<svg id="Calque_1" data-name="Calque 1" xmlns="http://www.w3.org/2000/svg" xmlns:xlink="http://www.w3.org/1999/xlink" viewBox="0 0 894.8 340.3"><defs><style>.cls-1,.cls-13,.cls-20{fill:none;}.cls-2{fill:#3695eb;stroke:#000;stroke-miterlimit:10;}.cls-3{fill:url(#Dégradé_sans_nom_32);}.cls-10,.cls-4,.cls-7{opacity:0.67;}.cls-10,.cls-12,.cls-13,.cls-4,.cls-7{isolation:isolate;}.cls-4{fill:url(#Dégradé_sans_nom_32-2);}.cls-5{fill:url(#Dégradé_sans_nom_32-3);}.cls-6{fill:url(#Dégradé_sans_nom_32-4);}.cls-7{fill:url(#Dégradé_sans_nom_32-5);}.cls-8{fill:url(#Dégradé_sans_nom_32-6);}.cls-9{fill:url(#Dégradé_sans_nom_32-7);}.cls-10{fill:url(#Dégradé_sans_nom_32-8);}.cls-11{fill:url(#Dégradé_sans_nom_32-9);}.cls-12{fill:#fff;opacity:0.5;}.cls-13,.cls-20{stroke:#fff;stroke-linecap:round;stroke-linejoin:round;stroke-width:1.44px;}.cls-13,.cls-21{opacity:0.6;}.cls-14{fill:#9dcaf3;}.cls-15{fill:#67a3d8;}.cls-16{clip-path:url(#clip-path);}.cls-17{fill:url(#Dégradé_sans_nom_32-10);}.cls-18{fill:url(#Dégradé_sans_nom_32-11);}.cls-19{fill:url(#Dégradé_sans_nom_32-12);}</style><linearGradient id="Dégradé_sans_nom_32" x1="742.39" y1="218.46" x2="821.08" y2="218.46" gradientTransform="translate(87.45 -202.02) rotate(15.59)" gradientUnits="userSpaceOnUse"><stop offset="0.16" stop-color="#9dcaf3"/><stop offset="0.52" stop-color="#fff"/><stop offset="0.56" stop-color="#f9fcfe"/><stop offset="0.6" stop-color="#e9f3fc"/><stop offset="0.66" stop-color="#cfe5f9"/><stop offset="0.72" stop-color="#aad1f5"/><stop offset="0.73" stop-color="#9dcaf3"/><stop offset="0.99" stop-color="#3695eb"/></linearGradient><linearGradient id="Dégradé_sans_nom_32-2" x1="754.17" y1="227.94" x2="821.07" y2="227.94" gradientTransform="matrix(1, 0, 0, 1, 0, 0)" xlink:href="#Dégradé_sans_nom_32"/><linearGradient id="Dégradé_sans_nom_32-3" x1="742.37" y1="206.34" x2="809.27" y2="206.34" gradientTransform="matrix(1, 0, 0, 1, 0, 0)" xlink:href="#Dégradé_sans_nom_32"/><linearGradient id="Dégradé_sans_nom_32-4" x1="54.62" y1="41.8" x2="119.04" y2="41.8" gradientTransform="translate(95.7 -54.16) rotate(69.58)" xlink:href="#Dégradé_sans_nom_32"/><linearGradient id="Dégradé_sans_nom_32-5" x1="54.67" y1="50.82" x2="106.85" y2="50.82" gradientTransform="matrix(1, 0, 0, 1, 0, 0)" xlink:href="#Dégradé_sans_nom_32"/><linearGradient id="Dégradé_sans_nom_32-6" x1="66.88" y1="31.58" x2="119.06" y2="31.58" gradientTransform="matrix(1, 0, 0, 1, 0, 0)" xlink:href="#Dégradé_sans_nom_32"/><linearGradient id="Dégradé_sans_nom_32-7" x1="785.51" y1="35.66" x2="828.52" y2="35.66" gradientTransform="translate(479.96 -702.98) rotate(63.59)" xlink:href="#Dégradé_sans_nom_32"/><linearGradient id="Dégradé_sans_nom_32-8" x1="785.43" y1="42.39" x2="818.22" y2="42.39" gradientTransform="matrix(1, 0, 0, 1, 0, 0)" xlink:href="#Dégradé_sans_nom_32"/><linearGradient id="Dégradé_sans_nom_32-9" x1="795.61" y1="28.27" x2="828.41" y2="28.27" gradientTransform="matrix(1, 0, 0, 1, 0, 0)" xlink:href="#Dégradé_sans_nom_32"/><clipPath id="clip-path"><path class="cls-1" d="M361.3,120.14a43.69,43.69,0,0,0-16,3,44.09,44.09,0,0,0-16-3c-25.9,0-46.9,22.3-46.9,49.7V239H408.3v-69.1C408.2,142.44,387.2,120.14,361.3,120.14Z"/></clipPath><linearGradient id="Dégradé_sans_nom_32-10" x1="295.65" y1="181.23" x2="417.95" y2="181.23" gradientTransform="matrix(1, 0, 0, 1, 0, 0)" xlink:href="#Dégradé_sans_nom_32"/><linearGradient id="Dégradé_sans_nom_32-11" x1="295.65" y1="197.08" x2="398.65" y2="197.08" gradientTransform="matrix(1, 0, 0, 1, 0, 0)" xlink:href="#Dégradé_sans_nom_32"/><linearGradient id="Dégradé_sans_nom_32-12" x1="314.95" y1="162.93" x2="417.95" y2="162.93" gradientTransform="matrix(1, 0, 0, 1, 0, 0)" xlink:href="#Dégradé_sans_nom_32"/></defs><title>pelia</title><g id="Groupe_804" data-name="Groupe 804"><g id="Groupe_798" data-name="Groupe 798"><g id="Groupe_781" data-name="Groupe 781"><path id="Tracé_4399" data-name="Tracé 4399" class="cls-2" d="M837.43,192.64c.2-1.6-3.9-3.4-9.1-4a19.41,19.41,0,0,0-6.8,0h0s-5.2.8-7.9,7a27.81,27.81,0,0,1-8.4,11.1l1.8,2.4a22.64,22.64,0,0,1,5.2-3c5.1-2.1,7.1-.5,7.1-.5h0c2.4,1.4,4.6,1.7,5.3.7.6-.8.2-2.1-.8-3.6,2.8,1,5.1,1,5.7,0s-.4-2.3-2-3.7c3.4.5,6.1.1,6.4-1.1.2-.9-1-2.2-3.2-3.2C834.53,194.64,837.33,193.94,837.43,192.64Z"/><path id="Tracé_4400" data-name="Tracé 4400" class="cls-2" d="M721,231.44c-1.2-1,.7-5.1,4.1-9a21.71,21.71,0,0,1,5.1-4.5h0s4.4-2.9,10.5,0a27.9,27.9,0,0,0,13.6,2.7l.2,3a20,20,0,0,0-5.9,1.2c-5.2,1.8-5.6,4.3-5.6,4.3h0c-.9,2.6-2.3,4.3-3.5,4.1-.9-.2-1.6-1.4-1.8-3.2-1.4,2.6-3.1,4.2-4.3,3.7-.9-.4-1.3-2-1-4.1-2.3,2.6-4.5,4.1-5.5,3.4-.8-.5-.7-2.3.2-4.5C724.43,231,721.93,232.34,721,231.44Z"/><g id="Groupe_780" data-name="Groupe 780"><g id="Groupe_779" data-name="Groupe 779"><g id="Groupe_778" data-name="Groupe 778"><rect id="Rectangle_567" data-name="Rectangle 567" class="cls-3" x="746.98" y="196.61" width="69.5" height="43.7" transform="translate(-29.95 218.09) rotate(-15.59)"/><path id="Tracé_4401" data-name="Tracé 4401" class="cls-4" d="M754.17,248.84l66.9-18.7L780.57,207Z"/><path id="Tracé_4402" data-name="Tracé 4402" class="cls-5" d="M742.37,206.74l66.9-18.7-23.8,36.6Z"/></g></g></g></g><g id="Groupe_800" data-name="Groupe 800"><path id="Tracé_4399-2" data-name="Tracé 4399-2" class="cls-2" d="M135.16,51.32c.92-.94-.92-4-4-6.89a16.91,16.91,0,0,0-4.45-3.23h0a8.87,8.87,0,0,0-8.38.83,23.66,23.66,0,0,1-10.66,3.26l.1,2.42a17.62,17.62,0,0,1,4.81.52c4.31,1,4.84,3,4.84,3h0c.89,2,2.17,3.31,3.13,3,.76-.2,1.16-1.26,1.14-2.76,1.31,1.94,2.84,3.06,3.72,2.7s.82-1.63.47-3.37c2,2,4,2.89,4.65,2.28s.36-1.85-.49-3.58C132.36,51.26,134.49,52.07,135.16,51.32Z"/><path id="Tracé_4400-2" data-name="Tracé 4400-2" class="cls-2" d="M41.39,21.61c-.34-1.23,2.82-3,6.91-3.88a20,20,0,0,1,5.43-.5h0a8.92,8.92,0,0,1,6.79,4.94,23.05,23.05,0,0,0,7.53,8.19L66.8,32.42a15.21,15.21,0,0,0-4.39-2c-4.28-1.25-5.7.19-5.7.19h0c-1.8,1.28-3.51,1.77-4.2,1-.59-.55-.35-1.73.39-2.93-2.12,1.06-4,1.2-4.51.43-.39-.65.13-1.88,1.29-3.14-2.69.64-4.85.55-5.15-.4-.25-.68.66-1.75,2.28-2.8C43.83,23,41.55,22.59,41.39,21.61Z"/><g id="Groupe_780-2" data-name="Groupe 780-2"><g id="Groupe_779-2" data-name="Groupe 779-2"><g id="Groupe_778-2" data-name="Groupe 778-2"><rect id="Rectangle_567-2" data-name="Rectangle 567-2" class="cls-6" x="69.33" y="13.95" width="35" height="55.7" transform="matrix(0.35, -0.94, 0.94, 0.35, 17.36, 108.59)"/><path id="Tracé_4401-2" data-name="Tracé 4401-2" class="cls-7" d="M54.67,48.45l52.18,19.38-15.34-34Z"/><path id="Tracé_4402-2" data-name="Tracé 4402-2" class="cls-8" d="M66.88,15.66,119.06,35,86.38,47.51Z"/></g></g></g></g><g id="Groupe_799" data-name="Groupe 799"><path id="Tracé_4399-3" data-name="Tracé 4399-3" class="cls-2" d="M837.9,45.12c.61-.53-.28-2.67-2.16-4.77a10.8,10.8,0,0,0-2.68-2.41h0a5.68,5.68,0,0,0-5.52,0,16.1,16.1,0,0,1-7.22,1.44L820.26,41a9.62,9.62,0,0,1,3.15.68c2.75,1,3,2.25,3,2.25h0c.5,1.39,1.18,2.28,1.82,2.18s.81-.75,1-1.68c.78,1.37,1.67,2.17,2.23,2s.65-1,.59-2.15c1.21,1.35,2.38,2.14,2.93,1.83s.37-1.15-.12-2.4C836.05,44.94,837.36,45.57,837.9,45.12Z"/><path id="Tracé_4400-3" data-name="Tracé 4400-3" class="cls-2" d="M778.55,19.27c0-.85,2-1.8,4.85-2.09a15,15,0,0,1,3.61,0h0a5.93,5.93,0,0,1,4.09,3.68,13.75,13.75,0,0,0,4.41,5.86l-1,1.25a10.73,10.73,0,0,0-2.78-1.55c-2.75-1.13-3.76-.3-3.76-.3h0c-1.31.71-2.43.91-2.89.36-.3-.4-.06-1.13.47-1.86-1.53.5-2.73.5-3-.05s.15-1.22,1.1-2c-1.82.23-3.25,0-3.36-.61s.58-1.09,1.68-1.71C780.1,20.39,778.66,19.9,778.55,19.27Z"/><g id="Groupe_780-3" data-name="Groupe 780-3"><g id="Groupe_779-3" data-name="Groupe 779-3"><g id="Groupe_778-3" data-name="Groupe 778-3"><rect id="Rectangle_567-3" data-name="Rectangle 567-3" class="cls-9" x="795.52" y="17.36" width="23" height="36.6" transform="translate(416.09 742.57) rotate(-63.59)"/><path id="Tracé_4401-3" data-name="Tracé 4401-3" class="cls-10" d="M785.43,37.71l32.79,16.34-7.66-23.32Z"/><path id="Tracé_4402-3" data-name="Tracé 4402-3" class="cls-11" d="M795.61,17.14l32.8,16.34-22.28,5.91Z"/></g></g></g></g><path id="Tracé_4407" data-name="Tracé 4407" class="cls-12" d="M217,168.78a23.36,23.36,0,0,0-37-19,33.15,33.15,0,0,0-62.2-4.2,23.14,23.14,0,0,0-25.2,16.6,16.15,16.15,0,0,0-22.3,5,16.61,16.61,0,0,0-2.5,8.7H216A27.05,27.05,0,0,0,217,168.78Z"/><path id="Tracé_4408" data-name="Tracé 4408" class="cls-12" d="M630.27,241a12.63,12.63,0,0,0-5.1,1.1,16.6,16.6,0,0,0-17.2-9.9,23.32,23.32,0,0,0-43.6,3.2,16.15,16.15,0,0,0-22.3,5,16.61,16.61,0,0,0-2.5,8.7h102.2A12.27,12.27,0,0,0,630.27,241Z"/><path id="Tracé_4409" data-name="Tracé 4409" class="cls-12" d="M754,73.08a16.21,16.21,0,0,0-25.6-13.2,23.23,23.23,0,0,0-28.6-16.5,24.37,24.37,0,0,0-8.9,4.6,29.21,29.21,0,0,0-55.6,8.6,17,17,0,0,0-22.7,8.3,16.56,16.56,0,0,0-1.6,7.3v.9Z"/><circle id="Ellipse_10" data-name="Ellipse 10" class="cls-13" cx="294.17" cy="6.28" r="5.5"/><path id="Tracé_4410" data-name="Tracé 4410" class="cls-13" d="M564.77,114.48a3.8,3.8,0,1,1-3.8-3.8A3.86,3.86,0,0,1,564.77,114.48Z"/><circle id="Ellipse_11" data-name="Ellipse 11" class="cls-13" cx="671.37" cy="150.88" r="4.5"/><g id="Groupe_794" data-name="Groupe 794"><path id="Tracé_4411" data-name="Tracé 4411" class="cls-14" d="M433.8,120.19H361.3v118.9H480.7v-69.2C480.6,142.49,459.7,120.19,433.8,120.19Z"/><path id="Tracé_4412" data-name="Tracé 4412" class="cls-15" d="M408.2,239.09v-69.2c0-27.5-21-49.7-46.9-49.7h0c-25.9,0-46.9,22.3-46.9,49.7v69.2Z"/><rect id="Rectangle_569" data-name="Rectangle 569" class="cls-15" x="390.9" y="239.09" width="18.2" height="101.2"/><rect id="Rectangle_570" data-name="Rectangle 570" class="cls-14" x="409.1" y="239.09" width="13.7" height="101.2"/><g id="Groupe_791" data-name="Groupe 791"><g class="cls-16"><g id="Groupe_790" data-name="Groupe 790"><g id="Groupe_789" data-name="Groupe 789"><g id="Groupe_788" data-name="Groupe 788"><g id="Groupe_787" data-name="Groupe 787"><g id="Groupe_786" data-name="Groupe 786"><path id="Tracé_4417" data-name="Tracé 4417" class="cls-17" d="M295.65,198.38l19.3-64.8,103,30.5-19.3,64.8Z"/><path id="Tracé_4413" data-name="Tracé 4413" class="cls-18" d="M295.65,198.28l103,30.6-34-63.6Z"/><path id="Tracé_4414" data-name="Tracé 4414" class="cls-19" d="M315,133.48l103,30.6-61.3,28.3Z"/></g></g></g></g></g></g></g><g id="Groupe_792" data-name="Groupe 792"><circle id="Ellipse_12" data-name="Ellipse 12" class="cls-15" cx="442.44" cy="174.79" r="11.1"/><rect id="Rectangle_572" data-name="Rectangle 572" class="cls-15" x="431.34" y="110.69" width="9.1" height="64"/><rect id="Rectangle_573" data-name="Rectangle 573" class="cls-15" x="431.34" y="110.69" width="34.9" height="23.3"/></g><g id="Groupe_793" data-name="Groupe 793"><line id="Ligne_51" data-name="Ligne 51" class="cls-20" x1="274.1" y1="141.75" x2="290.3" y2="146.35"/><line id="Ligne_52" data-name="Ligne 52" class="cls-20" x1="262.6" y1="149.15" x2="298.1" y2="159.05"/><line id="Ligne_53" data-name="Ligne 53" class="cls-20" x1="265.2" y1="160.55" x2="288.5" y2="166.95"/></g><path id="Tracé_4416" data-name="Tracé 4416" class="cls-13" d="M280.4,242.69a3.6,3.6,0,1,1-3.6-3.6A3.59,3.59,0,0,1,280.4,242.69Z"/></g><g id="Groupe_795" data-name="Groupe 795" class="cls-21"><line id="Ligne_54" data-name="Ligne 54" class="cls-20" x1="9.71" y1="217.59" x2="9.71" y2="235.69"/><line id="Ligne_55" data-name="Ligne 55" class="cls-20" x1="18.81" y1="226.69" x2="0.71" y2="226.69"/></g><g id="Groupe_796" data-name="Groupe 796" class="cls-21"><line id="Ligne_56" data-name="Ligne 56" class="cls-20" x1="884.99" y1="116.75" x2="884.99" y2="134.85"/><line id="Ligne_57" data-name="Ligne 57" class="cls-20" x1="894.09" y1="125.85" x2="875.99" y2="125.85"/></g><g id="Groupe_797" data-name="Groupe 797" class="cls-21"><line id="Ligne_58" data-name="Ligne 58" class="cls-20" x1="159.17" y1="271.48" x2="159.17" y2="279.88"/><line id="Ligne_59" data-name="Ligne 59" class="cls-20" x1="163.27" y1="275.68" x2="154.97" y2="275.68"/></g></g></g></svg>