<svg id="svg108" xmlns="http://www.w3.org/2000/svg" xmlns:xlink="http://www.w3.org/1999/xlink" viewBox="0 0 211.94 317.08"><defs><style>.cls-1{fill:#183e47;}.cls-2,.cls-25{fill:none;stroke-width:0.57px;}.cls-2{stroke:#29adb7;stroke-dasharray:3.4;}.cls-2,.cls-25,.cls-6{stroke-miterlimit:10;}.cls-3{fill:#1d5260;}.cls-4{fill:#ed844a;opacity:0.5;}.cls-4,.cls-8{isolation:isolate;}.cls-5{fill:#f7c6a4;}.cls-6{fill:#3695eb;stroke:#000;}.cls-7{fill:#efb78e;}.cls-13,.cls-8{fill:#e29373;}.cls-8{opacity:0.7;}.cls-9{fill:#67a3d8;}.cls-10{fill:url(#Dégradé_sans_nom_32);}.cls-11{fill:url(#Dégradé_sans_nom_32-2);}.cls-12{fill:url(#Dégradé_sans_nom_2);}.cls-14{fill:#eaab7e;}.cls-15{fill:#f3c099;}.cls-16{fill:#4b1d1c;}.cls-17,.cls-29,.cls-30{fill:#fff;}.cls-18{fill:#f4a499;}.cls-19{fill:url(#Dégradé_sans_nom_3);}.cls-20{fill:url(#Dégradé_sans_nom_4);}.cls-21{fill:#1a5a84;}.cls-22{fill:#377fbc;}.cls-23{fill:#1d1d1b;}.cls-24{fill:#261306;}.cls-25{stroke:#183e47;}.cls-26{fill:#2165aa;}.cls-27{fill:#8dc63f;}.cls-28{fill:#9dcaf3;}.cls-29{font-size:11px;}.cls-29,.cls-30{font-family:LucidaHandwriting-Italic, Lucida Handwriting;font-style:italic;}.cls-30{font-size:12px;}</style><linearGradient id="Dégradé_sans_nom_32" x1="130.79" y1="68.86" x2="211.94" y2="68.86" gradientUnits="userSpaceOnUse"><stop offset="0.16" stop-color="#9dcaf3"/><stop offset="0.52" stop-color="#fff"/><stop offset="0.56" stop-color="#f9fcfe"/><stop offset="0.6" stop-color="#e9f3fc"/><stop offset="0.66" stop-color="#cfe5f9"/><stop offset="0.72" stop-color="#aad1f5"/><stop offset="0.73" stop-color="#9dcaf3"/><stop offset="0.99" stop-color="#3695eb"/></linearGradient><linearGradient id="Dégradé_sans_nom_32-2" x1="111.49" y1="83.41" x2="211.94" y2="83.41" xlink:href="#Dégradé_sans_nom_32"/><linearGradient id="Dégradé_sans_nom_2" x1="731.06" y1="312.83" x2="748.08" y2="243.56" gradientTransform="matrix(0.5, 0, 0, -1.99, -331.16, 881.78)" gradientUnits="userSpaceOnUse"><stop offset="0" stop-color="#270a00"/><stop offset="1" stop-color="#512207"/></linearGradient><linearGradient id="Dégradé_sans_nom_3" x1="700" y1="-47.27" x2="712.12" y2="-47.27" gradientTransform="matrix(2.04, 0, 0, -0.49, -21.5, 25.23)" xlink:href="#Dégradé_sans_nom_2"/><linearGradient id="Dégradé_sans_nom_4" x1="946.11" y1="107.76" x2="957.97" y2="107.76" gradientTransform="matrix(1.56, 0, 0, -0.64, -100.12, 110.25)" xlink:href="#Dégradé_sans_nom_2"/></defs><title>Plan de travail 1</title><g id="Groupe_765" data-name="Groupe 765"><g id="redhead"><g id="redhead-2"><g id="jeans"><path id="jeans-2" class="cls-1" d="M32.51,319.31c4.08-24.44,23.85-50.57,23.85-50.57,4.51,4.2,69.38,16,70.39,13.24-1,2.75,6.77,27.67,7,30.76a65.1,65.1,0,0,1,1.58,6.59"/><path id="jeans-3" class="cls-2" d="M38.68,319.31c4.09-24.44,23.85-50.57,23.85-50.57"/><path id="highlight" class="cls-3" d="M46.55,319.33c1.24-5.41,3-9.64,6.4-13.14,15,7.82,59.27,4.13,76-2.52,1,2.5,3.16,9,5.36,15.55h0"/></g></g><g id="neck"><path id="Tracé_4330" data-name="Tracé 4330" class="cls-4" d="M109.24,149.27a16.33,16.33,0,0,1-3.75-.41v0c-5,17.37-35.14,11.32-49.75.34-4.23,2.1-8.54,2.94-11.72,4.05C58.56,168.89,99.85,166.69,109.24,149.27Z"/></g><g id="hand_with_phone" data-name="hand with phone"><path id="forearm" class="cls-5" d="M151.34,108.88c2.64,7.59,22.39,29.25,27.84,36.27-7.89,1.94-8,2.11-18,1-8-15.25-13.23-26-16.37-30.42"/></g><g id="blouse"><path id="blouse-2" class="cls-6" d="M21.71,239s12-32.5,22-45.4C54.2,205.08,63.87,251.51,61.77,258c-2.53,7.91-15,22.84-23.13,37.79,51,19.46,86.05,8.27,92.93,1.93-2.17-7.9-10.18-33.79-9.28-39.83,2.14-14.29,2.24-31.14,2.73-42.59,4.25-7.14,6.37-9.45,8.1-17,1.16-5,.77-8.68-2.7-19.87,8.4-4.52,39.89,13.4,68.68,9,1.06-3.93-1.77-22.13-26.72-50.52-.94,4-10.12,6.2-13.69,4.33,2.89,5.83,8.34,16.68,9.24,18.59-9.93-.32-22.31-4.22-30.76-7.86-10.6-4.57-24.65-4-34.73-2.9.13,12.65-17.86,16.69-41.87-.39C45,150,25.9,154.31,24.66,159.18c-3.68,16.87-33.8,93.9-21.9,102.6"/><path id="blouse-3" class="cls-6" d="M105.48,148.88c10.08-1.11,21.1-1.41,31.69,3.16,8.45,3.65,20.84,7.54,30.76,7.87-.9-1.92-6.35-12.77-9.24-18.59,3.58,1.87,12.76-.36,13.69-4.34,25,28.39,27.78,46.59,26.72,50.52-28.8,4.37-60.27-13.55-68.68-9,0,0-2.74-19.94-24.94-29.59"/></g><path id="blouse-5" class="cls-5" d="M2.76,261.78c8.29,1.43,24.92-2.39,41.92-6.48-1.25-1.7-1.92-13.34.51-16.32-10.23.56-19.56.58-23.48,0,0,0-20.22,3.58-19,22.79Z"/></g><g id="Groupe_754" data-name="Groupe 754"><path id="Tracé_4331" data-name="Tracé 4331" class="cls-7" d="M147.89,92.63a3.6,3.6,0,0,0-.26,1,28.36,28.36,0,0,0-.08,3.8s1.16-1.34,1.47-1.68.6-.58.6-.58a8.9,8.9,0,0,0,.93.8,5.21,5.21,0,0,0,.55.36c.71.4.76.4.89.66a8,8,0,0,0,1.81,2.57,2,2,0,0,0,.83.25,1.16,1.16,0,0,0,.79-.2l.13-.16s.3.25.21-.33a9.67,9.67,0,0,0-.52-1.84,10.88,10.88,0,0,0-1-1.86c-.27.31-.86.55-2.07-.12a7.49,7.49,0,0,1-2.76-2.36S148.69,92.81,147.89,92.63Z"/><path id="Tracé_4332" data-name="Tracé 4332" class="cls-8" d="M148.22,117.23a9.2,9.2,0,0,0,4.52-7.75c-.15-2.27-2.42-5.61-2.51-6.71s0-1.42,1-2.87a10.76,10.76,0,0,1,1.18-1.51c.07.47.11.94.14,1.41a2,2,0,0,0,.81,1.69c.56.36.79.14.93,0l.13-.12s.23.09.24-.52c0-.27,0-.67-.06-1.1a2,2,0,0,1-.83-.25A8,8,0,0,1,152,97c-.13-.26-.18-.26-.89-.66a3.25,3.25,0,0,1-.55-.36,2.57,2.57,0,0,0-.35.39,9.17,9.17,0,0,1-2.59,2.17h0c.18,2.14,3.11,8.81,3.8,11.13a6.29,6.29,0,0,1-.6,5.15c-.69,1.25-3.19.36-4,1.75Z"/><path id="Tracé_4333" data-name="Tracé 4333" class="cls-7" d="M148.83,89.85a11.25,11.25,0,0,1-.94,2.78c.8.18,1.5.28,1.5.28a7.35,7.35,0,0,0,2.75,2.35c1.22.68,1.8.43,2.07.12a1.11,1.11,0,0,0,.23-.46l.33.13a3.86,3.86,0,0,0-.68-1.22,6.47,6.47,0,0,0-1.17-1,7.08,7.08,0,0,0-.74-.9,7.29,7.29,0,0,0-2.09-1.42C149.8,90.33,149.35,90.11,148.83,89.85Z"/><path id="Tracé_4334" data-name="Tracé 4334" class="cls-7" d="M148.5,85.89s-.06-.18-1.19-.56a4.27,4.27,0,0,0-2-.17,9.94,9.94,0,0,0-1.89-.1c-.4.1-4,.94-5.06,1.32a3.68,3.68,0,0,0-2.08,1.85c-.2.58-.54,2.93-.79,4.59s-.57,3.26-.76,4.56a5.39,5.39,0,0,0,.8,3.18c.27.56,1.48,2.89,2.74,5-2.08-3.74,3.11-4.15,3.74-4.83a4.7,4.7,0,0,0,1-2.8c.23-1.39.46-3.66.57-5.09a5.12,5.12,0,0,1,.57-2.27c.19-.44.66-1.61,1-2.3H145c-1.34-.23-2.48,1.75-3.31,3.07s-1.81,3.06-2.19,3-.21-1.37-.1-2.5.27-2.66.27-2.66a8.14,8.14,0,0,0,1.68-.37c.8-.29,1.63-.75,2.39-1,.57-.21.77,0,1.63-.12a2.54,2.54,0,0,1,.23-.34s.16-.3.44-.94a1.14,1.14,0,0,1,1.31-.76A1.09,1.09,0,0,1,148,86a.16.16,0,0,1,.11,0C148.49,86,148.5,85.89,148.5,85.89Z"/><g id="Groupe_753" data-name="Groupe 753"><path id="Tracé_4335" data-name="Tracé 4335" class="cls-9" d="M130.79,70.73l3.47,29.35,77.68-21.83Z"/><path id="Tracé_4336" data-name="Tracé 4336" class="cls-9" d="M134.25,100.08,124.52,77l87.42,1.23Z"/><path id="Tracé_4337" data-name="Tracé 4337" class="cls-10" d="M137.38,59.83l-6.59,10.9,81.15,7.52L138.19,59.49A.73.73,0,0,0,137.38,59.83Z"/><path id="Tracé_4338" data-name="Tracé 4338" class="cls-11" d="M124.52,77l-13,12.35a.25.25,0,0,0,0,.35.26.26,0,0,0,.21.08L211.94,78.25Z"/></g><path id="Tracé_4339" data-name="Tracé 4339" class="cls-5" d="M144.27,115.45c-.5-.49-3-5.07-4.59-7.49-.35-.51-.72-1.11-1.09-1.74a3.79,3.79,0,0,1-.2-.34h0c-.06-.09-.1-.18-.16-.27-2.08-3.73,3.11-4.15,3.74-4.83a4.66,4.66,0,0,0,1-2.8c.23-1.38.46-3.65.56-5.08a5.31,5.31,0,0,1,.58-2.28c.19-.44.66-1.6,1-2.29a2.35,2.35,0,0,1,.1-.22,4.52,4.52,0,0,1,.23-.45,1.85,1.85,0,0,1,.23-.34s.16-.3.44-.94a1.13,1.13,0,0,1,1.31-.76A1.12,1.12,0,0,1,148,86a3.15,3.15,0,0,1,.31.57,5.76,5.76,0,0,1,.54,3.06c0,.06,0,.12,0,.19a12,12,0,0,1-.94,2.78,3.2,3.2,0,0,0-.27,1,31.92,31.92,0,0,0-.08,3.79c0,.35,0,.72.07,1.1h0c.17,2.14,1.62,3.73,2.3,5.79s.8,3,1.49,5.34a6.29,6.29,0,0,1-.6,5.15s-1.57,5.68-6.54.68Z"/></g><g id="Groupe_760" data-name="Groupe 760"><path id="Tracé_4340" data-name="Tracé 4340" class="cls-12" d="M41.69,14.17s1.66-11.52.39-11.56l-4-.14,0,1.06L34.82,2.36,17.5,1.78l4.79,3.47-12.38,3L5.59,136.92s6.3,14.94,13.67,18.65c0,0-3.87-40.86-1.4-63.92,0,0-.32,56,5.3,66.45l2.42,2.19,7.72-4.85,1.84-54.94s1,49,.08,54.25l8.06-11.15L45.5,77.86Z"/><path id="Tracé_4341" data-name="Tracé 4341" class="cls-7" d="M87,107.67s.15,37.49,12.82,40c0,0,10.48.62,11.38,10.42.42,4.52-7.67,13.63-25.56,13.63-42.85,0-35.79-17-35.79-17C53.2,149.85,65.18,147,65.18,147c2.81-3.15,2.43-24.11-.45-39.85Z"/><path id="Tracé_4342" data-name="Tracé 4342" class="cls-8" d="M66.79,124.39s11.25,8.28,22.41,5.9l-.88-5.9L65.38,114.24Z"/><path id="Tracé_4343" data-name="Tracé 4343" class="cls-6" d="M50.73,9.3c-.33-.44,0-4.61-2.19-4.93s-14-.76-15.13,1,2,12.94,2,12.94Z"/><path id="Tracé_4344" data-name="Tracé 4344" class="cls-5" d="M43.67,89.59c-2.9-6-35.58-37.38-24-55.94C35.16,9,105.3-.86,107.33,45.65c.37,8.4,5.8,16.51,5.8,16.51,11.46,10.88,2.29,28.71,2.29,28.71s-4.34,15.1-8,24.67c-4.91,13-32.76,7.49-32.76,7.49s-18.58-4.63-31-33.44"/><g id="Groupe_755" data-name="Groupe 755"><path id="Tracé_4345" data-name="Tracé 4345" class="cls-7" d="M87.16,81s.32,2.23,4.63.46c0,0,.33,2.23,2.36.8s3.95-6,3.37-5.79-6.8,1.2-10.36,4.53"/><path id="Tracé_4346" data-name="Tracé 4346" class="cls-13" d="M91.51,71.32s7.48,3.44,5.42,7.23-3,4.47-3,4.47,7.77-5.9,4-9C97.86,74,96.33,72.16,91.51,71.32Z"/><path id="Tracé_4347" data-name="Tracé 4347" class="cls-14" d="M85,79.79s3.88,3.07,5.45,2S88,85.72,85,79.79Z"/></g><g id="Groupe_756" data-name="Groupe 756"><path id="Tracé_4348" data-name="Tracé 4348" class="cls-15" d="M93.44,104.17c-4.44,1.14-6.22-.43-6.22-.43l11.45-2.41S97.46,103.13,93.44,104.17Z"/><path id="Tracé_4349" data-name="Tracé 4349" class="cls-16" d="M76.62,96.73A67.42,67.42,0,0,0,92.4,95.29C103.7,93,104.49,90.41,105,90c.14-.14.64-1.09.85-.88s-.57,1.17-.65,1.33c-.2.45.88,8.44-11.71,12.11-13,3.77-16.09-4-16.54-5.2a3.68,3.68,0,0,1-1.09-.2c-.19-.06-1.21-.63-.93-.71a9.33,9.33,0,0,1,1.74.31Z"/><path id="Tracé_4350" data-name="Tracé 4350" class="cls-17" d="M79.46,96.84c2.46-.17,8.47-.3,12.36-1.25,4.9-1.19,10.44-4,12-4.67a8.29,8.29,0,0,1-5.64,5.38c2.84-.54,3.15.33,3.38,1.47-1.11,2.56-2.47,3.9-6.66,5.11a20.9,20.9,0,0,1-13.72-1.21c.24-1.56,1.62-2.13,4.2-2.55a11.29,11.29,0,0,1-6-2.28Z"/><path id="Tracé_4351" data-name="Tracé 4351" class="cls-13" d="M96.43,99.25c5.58-2.62,8.42-6,8.47-8.64a.67.67,0,0,1,.25-.19s1.11,10.17-11.17,13c-14,3.17-17.65-5.26-18.12-6.21a12.87,12.87,0,0,0,1.38.13c4,4.28,12.59,5.07,19.19,2Z"/><path id="Tracé_4352" data-name="Tracé 4352" class="cls-13" d="M93.21,93.49c3-.72,5.54-1.74,8.43-2.52,2.24-.61,3.31-1,3.31-1S103.49,93,93.51,95.52c-10.14,2.53-16.8,1.21-16.8,1.21a41.83,41.83,0,0,0,5.64-1.07C87,94.5,90,94.27,93.21,93.49Z"/><path id="Tracé_4353" data-name="Tracé 4353" class="cls-18" d="M83.76,101.69c.66.3,1,.72.78,1s-1,.19-1.61-.1-1-.72-.78-1S83.1,101.4,83.76,101.69Z"/><path id="Tracé_4354" data-name="Tracé 4354" class="cls-18" d="M86.16,102.15c.76.16,1.25.5,1.1.76s-.89.35-1.65.18-1.25-.5-1.1-.76S85.4,102,86.16,102.15Z"/><path id="Tracé_4355" data-name="Tracé 4355" class="cls-17" d="M85,102.12c.49.16.77.43.63.6s-.63.18-1.12,0-.76-.43-.63-.6S84.5,102,85,102.12Z"/></g><path id="Tracé_4356" data-name="Tracé 4356" class="cls-19" d="M48.45,51.28c3.22-3.33,16.32-2.11,18.88-2.09s4.83,1.71,5.42-1-1-2.45-1-2.45a42.81,42.81,0,0,0-10.55.11s-10.9,1.42-12.77,5.46Z"/><path id="Tracé_4357" data-name="Tracé 4357" class="cls-20" d="M105.51,38.24c.19.65,0-.06.1.57,0,0-6.32-1.34-15.89,5.9,0,0-.59.71-1.5-.21s-1.4-2.3-.38-3.06,11.61-5.94,17.67-3.2Z"/><path id="Tracé_4359" data-name="Tracé 4359" class="cls-16" d="M125.24,70.19c0,1-3.84-29-28.51-36.84,0,0-24.62,3.64-47.68-2.38,0,0-20.24,17.63-9.2,53.87l-8.76-.2S6.25,55.91,18.75,28.47c0,0,4.78-9.5,26.18-18.34,0,0,54-25.39,78.67,24.59,0,0-12.61-10-27.1-12.1,0,0,28.6,9.71,28.74,47.57Z"/><g id="Groupe_759" data-name="Groupe 759"><g id="Groupe_758" data-name="Groupe 758"><path id="Tracé_4360" data-name="Tracé 4360" class="cls-5" d="M41.11,84.37s-7.78-5.92-12.32,1.84,5.46,15.49,12,14.66c0,0,1.4,4.56,8.7-.76Z"/><g id="Groupe_757" data-name="Groupe 757"><path id="Tracé_4361" data-name="Tracé 4361" class="cls-13" d="M32.38,91.08c-.19-.08,1.43-5.46,9.18,1.37C41.56,92.45,34.63,88.13,32.38,91.08Z"/></g></g><path id="Tracé_4362" data-name="Tracé 4362" class="cls-13" d="M41.92,93.28s-3.25-.89-3.39,2.39c-.12,2.8,2.18,2.56,2.18,2.56s-2.94,1-3.19-2.8S41.92,93.28,41.92,93.28Z"/></g><path id="Tracé_4363" data-name="Tracé 4363" class="cls-16" d="M53.55,104.89s-13.54-17.53-17-38l-4,2.65S37.47,91.72,53.55,104.89Z"/><path id="Tracé_4364" data-name="Tracé 4364" class="cls-17" d="M106.88,49.44A9.66,9.66,0,0,1,108.05,58c-1.47,3.57-4.8,4.55-7.35,5.24-3,.8-6.27,1.66-7.1-.54s-1.44-9.13.51-11.37,8.79-5.94,12.77-1.9"/><path id="Tracé_4365" data-name="Tracé 4365" class="cls-21" d="M104.3,56.44c.08,4.54-2.78,7.89-6.38,7.47s-6.23-4.24-6.14-7.09c.15-4.5,2.9-8.21,6.5-7.8s5.94,2.88,6,7.42"/><path id="Tracé_4366" data-name="Tracé 4366" class="cls-22" d="M103.37,56.33c.06,3.89-2.39,6.76-5.48,6.4-2.8-.32-5.15-3.19-5.62-6.62,3.06-2.31,7.24-2,11.09.08,0,0,0,.1,0,.14"/><path id="Tracé_4367" data-name="Tracé 4367" class="cls-13" d="M106.8,48c1,.77-1.4.28-5.07,0-4.92-.42-8.56,2-8.93,6.46a34.22,34.22,0,0,0,.29,8.09s-3.62-10,.28-14.49,8.92-3.53,13.43,0"/><path id="Tracé_4368" data-name="Tracé 4368" class="cls-23" d="M97,50.79c-4.63,2.87-3.28,12.59-3.28,12.59-1-2.06-2.39-10.42.63-13.62s6.66-2.88,10.79-2.17a5.66,5.66,0,0,1,5.08,6,9.6,9.6,0,0,1-4.33,7.46,33.73,33.73,0,0,0,2.34-5.66,5.75,5.75,0,0,0-.38-4.76c-.72-1.42-6.21-2.72-10.85.15"/><path id="Tracé_4369" data-name="Tracé 4369" class="cls-24" d="M101.73,55.66c0,2.75-1.69,4.78-3.88,4.53s-4-2.69-4-5.44S95.5,50,97.68,50.21s4,2.69,4,5.45"/><path id="Tracé_4370" data-name="Tracé 4370" class="cls-23" d="M110.85,50.61c-2-.3-1.28,1.57-1.94.89-3.79-3.91-6.3-2.59-9.25-2.21a38,38,0,0,0-5.89,1.33,11.24,11.24,0,0,1,9.7-4.13c6.19.63,10.93,4.64,7.38,4.12"/><path id="Tracé_4371" data-name="Tracé 4371" class="cls-17" d="M96.19,58.37c0,.7-.43,1.22-1,1.15a1.34,1.34,0,0,1-1-1.38c0-.7.42-1.23,1-1.16a1.37,1.37,0,0,1,1,1.39"/><path id="Tracé_4372" data-name="Tracé 4372" class="cls-17" d="M70.94,58.27c3.9.47,6.5,7.76,7,10.37.54,2.76-1.29,3.89-5,5.38a16.35,16.35,0,0,1-12.35,0c-4.52-1.94-4.49-6.84-4.36-8.08.7-6.3,10.82-8.15,14.72-7.68"/><path id="Tracé_4373" data-name="Tracé 4373" class="cls-13" d="M68.65,55c5.88.47,9.23,11.48,9.23,11.48s-.81-3.34-4.92-6.86S64.78,57,60.15,60.94s-5.59,12.13-5.34,4.91C55,59.64,60.93,54.34,68.65,55"/><path id="Tracé_4374" data-name="Tracé 4374" class="cls-21" d="M70.36,64.6a8.17,8.17,0,0,1-4.17,10.57,7.73,7.73,0,0,1-10-4.48,1.55,1.55,0,0,1-.08-.23A8.17,8.17,0,0,1,60.3,59.89a7.74,7.74,0,0,1,10,4.48,2.09,2.09,0,0,1,.08.23"/><path id="Tracé_4375" data-name="Tracé 4375" class="cls-22" d="M65.77,74.08a6.62,6.62,0,0,1-8.56-3.84,1.46,1.46,0,0,1-.07-.19l0-.14c3.59-3.24,8.21-5,12.55-3.88a6.93,6.93,0,0,1-3.88,8"/><path id="Tracé_4376" data-name="Tracé 4376" class="cls-24" d="M67.39,65.3a5,5,0,0,1-2.53,6.42A4.7,4.7,0,0,1,58.8,69a.69.69,0,0,1,0-.13,5,5,0,0,1,2.53-6.42,4.71,4.71,0,0,1,6.07,2.72s0,.09,0,.14"/><path id="Tracé_4377" data-name="Tracé 4377" class="cls-17" d="M61.41,70.34A1.28,1.28,0,0,1,60.76,72a1.2,1.2,0,0,1-1.54-.7v0a1.27,1.27,0,0,1,.64-1.64,1.21,1.21,0,0,1,1.55.7v0"/><path id="Tracé_4378" data-name="Tracé 4378" class="cls-23" d="M57.87,61C64.16,55.88,69.26,58,69.26,58a25.78,25.78,0,0,0-7.91,2.44c-3.56,1.93-4.75,7.87-4.83,8.93s-2.32,3.26-3.3,4.16c-1.71,1.56-2.57.67-2.57.67s.6.09,1.63-1.22c2.58-3.27.76-8,5.59-11.91"/><path id="Tracé_4379" data-name="Tracé 4379" class="cls-23" d="M60.17,75.2c-5.1-1.17-5.68-6-5.68-7.3a11.31,11.31,0,0,1,6.31-9.8c11-5.5,16,6,17.35,8.3,0,0-7.18-12.59-17.51-5.61-8.81,5.94-.47,14.4-.47,14.4"/></g><path id="Tracé_4380" data-name="Tracé 4380" class="cls-25" d="M97.16,319.34a91.22,91.22,0,0,0-.43-10.84"/><path id="Tracé_4381" data-name="Tracé 4381" class="cls-25" d="M88,319.34q.11-4.53.18-9.91"/><g id="Groupe_764" data-name="Groupe 764"><g id="Groupe_761" data-name="Groupe 761"><path id="Tracé_4382" data-name="Tracé 4382" class="cls-26" d="M100.31,198.33c-12.56.48-23.8,10.92-25.11,23.32s7.8,22.06,20.35,21.58,23.8-10.93,25.11-23.33S112.86,197.84,100.31,198.33Z"/></g><g id="Groupe_762" data-name="Groupe 762"><path id="Tracé_4383" data-name="Tracé 4383" class="cls-27" d="M92.77,233l-6,.23.12-1.14,6-.23Z"/><path id="Tracé_4384" data-name="Tracé 4384" class="cls-28" d="M98.73,232.75l-6,.23.12-1.14,6-.22Z"/><path id="Tracé_4385" data-name="Tracé 4385" class="cls-27" d="M104.66,232.52l-6,.23.12-1.13,6-.23Z"/><path id="Tracé_4386" data-name="Tracé 4386" class="cls-9" d="M110.61,232.29l-6,.23.12-1.13,6-.23Z"/></g><g id="Groupe_763" data-name="Groupe 763"><text class="cls-29" transform="translate(90.29 229.76)">ma</text><path id="Tracé_4387" data-name="Tracé 4387" class="cls-17" d="M87.75,225.33a2.54,2.54,0,0,0-2.27,2.18c-.09.89.45,1.28,1.24,1.25a2.5,2.5,0,0,0,2.19-2.18,1,1,0,0,0-.75-1.24,1,1,0,0,0-.41,0Z"/><text class="cls-30" transform="translate(81.47 218.58)">Pelia</text></g></g><path id="right_arm" data-name="right arm" class="cls-5" d="M115,252.88c-1.07-1.88-19-17.76-23.83-17.36-8.05.66-28.88,2.52-45.93,3.46-4.48,2.36-3.38,14.1-.51,16.32,15.29-3.68,30.87-7.58,41-8.09,5.09-.25,4.58.67,5.19,1.22,2.11,5.25,6.93,12.51,11.63,16.5-3.27-1.68-10.36-1.92-11.59-.06,6.13,2.3,11.22,3.45,16.64,5.78.42-.13,4.86-1.81,4.88-2.17.35-1.1-.15-1.54,0-2.75,1.19-2.72,3.29-2.51,3.26-4.79C112.79,258.82,117.06,255.78,115,252.88Z"/></g></svg>